# xmcd
#
# Track frame offsets: 
#        150
#        16194
#        35824
#        51025
#        64255
#        81123
#        96845
#        109897
#        123843
#        132891
#        145138
#        161254
#        173113
#
# Disc length: 2410 seconds
#
# Revision: 0
# Processed by: cddbd v1.5.2PL0 Copyright (c) Steve Scherf et al.
# Submitted via: ExactAudioCopyFreeDBPlugin 1.0
#
DISCID=a809680d
DTITLE=Salett, Peter - In The Ocean Of The Stars
DYEAR=2008
DGENRE=Country
TTITLE0=Magic Hour
TTITLE1=Far, Far Away
TTITLE2=Between The Dark And The Light
TTITLE3=True In Time
TTITLE4=She Needs Your Faith
TTITLE5=Fly Sparrow Fly
TTITLE6=In The Ocean Of The Stars
TTITLE7=More Than Blue
TTITLE8=Miss You (Thought You Should Know)
TTITLE9=What A Beautiful Dancer She Was
TTITLE10=Safe
TTITLE11=That Old Road
TTITLE12=Sunshine
EXTD=
EXTT0=
EXTT1=
EXTT2=
EXTT3=
EXTT4=
EXTT5=
EXTT6=
EXTT7=
EXTT8=
EXTT9=
EXTT10=
EXTT11=
EXTT12=
PLAYORDER=
